<svg xmlns="http://www.w3.org/2000/svg" data-name="Слой 1" viewBox="0 0 71.16 115" x="0px" y="0px"><title>Фак крутой</title><path d="M83.87,67.62c.17,1.18,0,2.32,0,3.45a2.27,2.27,0,0,0,.4,1.28,11.7,11.7,0,0,1,1.91,6.56,14.47,14.47,0,0,1-2.15,8.23A31.93,31.93,0,0,1,82.51,90a6.8,6.8,0,0,1-3.92,2.36,6.3,6.3,0,0,1-2.33.13c-1.66-.21-3.32,0-5-.11a1.82,1.82,0,0,0-1.2.35A15.38,15.38,0,0,1,67.62,94a1.55,1.55,0,0,1-.4.17c-1.94.35-3.88.86-5.89.41A5.87,5.87,0,0,1,59,93.46a5.23,5.23,0,0,0-2.25-1.17,2.24,2.24,0,0,0-1.33.07,20.36,20.36,0,0,0-3.16,1.76,7.15,7.15,0,0,1-3.14.85,18.18,18.18,0,0,1-7.18-1.31A23.13,23.13,0,0,1,39.28,92,2.69,2.69,0,0,0,38,91.57a.82.82,0,0,1-.77-.47,1.14,1.14,0,0,0-1.38-.5c-.76.19-1.53.32-2.29.51a7.36,7.36,0,0,1-6-1.15,31.3,31.3,0,0,1-4.33-3.06,7.94,7.94,0,0,1-2.69-4.83,32.53,32.53,0,0,1,.07-9.45,48.1,48.1,0,0,1,1.2-6.06,3.68,3.68,0,0,0,0-2.08c-.43-1.5-.8-3-1.25-4.51a21.9,21.9,0,0,0-1.83-4.18A66.73,66.73,0,0,1,15.44,49a4.76,4.76,0,0,1,.94-5.16A30.11,30.11,0,0,0,19.08,40c1.35-2.14,2.09-4.59,3.48-6.7A11.7,11.7,0,0,1,24,31.47a4.1,4.1,0,0,1,4.11-1.11,22.36,22.36,0,0,1,3.17.9,14.14,14.14,0,0,0,3.3.76,39.51,39.51,0,0,0,6,.41,3.23,3.23,0,0,1,.53,0c1.1.15,1.12.16,1.21-.9.21-2.65.4-5.31.6-8A70.67,70.67,0,0,0,42.77,15a50.69,50.69,0,0,1-.15-6.16C42.7,7.64,43,6.48,44.26,6a.83.83,0,0,0,.44-.55,6.83,6.83,0,0,1,.45-1.08A2.2,2.2,0,0,1,47.28,3a12.34,12.34,0,0,1,3.25.29,11,11,0,0,0,3,.49,2.83,2.83,0,0,1,2.59,1.76,1.76,1.76,0,0,0,.85.91,4.06,4.06,0,0,1,2.2,3.76,44.3,44.3,0,0,1-.42,7.54c-.28,2.36-.51,4.72-.85,7.08-.44,3.05-.85,6.12-1.19,9.18-.14,1.23-.06,2.49-.09,3.73a.76.76,0,0,0,.59.78,32.72,32.72,0,0,1,4.19,2.09,3.25,3.25,0,0,1,1.66,2.23,1.07,1.07,0,0,0,1.07.93,29.58,29.58,0,0,1,4.12,1A4.35,4.35,0,0,1,70.89,47c.4.67.71,1.39,1,2.1.17.37.37.52.82.36a5.74,5.74,0,0,1,3.55,0c.92.27,1.88.39,2.82.57a4.15,4.15,0,0,1,3.19,3.22,23.37,23.37,0,0,1,1.15,6.15c.06,1.41.34,2.82.42,4.23A22.24,22.24,0,0,1,83.87,67.62ZM27.34,43.54l-.16.19a10,10,0,0,0-1.29,4.66c0,1.41.07,2.83.05,4.25a31.2,31.2,0,0,1-1.68,9.07c-.54,1.68-1.08,3.37-1.46,5.08-.46,2.11-.95,4.21-1.2,6.37a38.49,38.49,0,0,0-.28,6.06,10.89,10.89,0,0,0,.56,3.86A10.59,10.59,0,0,0,26,87.72c1.3.87,2.79,1.4,4.09,2.27a1.89,1.89,0,0,0,.8.23,7.59,7.59,0,0,0,3.66-.42,9.51,9.51,0,0,1,1.65-.42,1.55,1.55,0,0,1,1.37.39c.38.32.65.78,1.13,1a13.52,13.52,0,0,1,2.13,1.2,12.68,12.68,0,0,0,1.78,1A15.88,15.88,0,0,0,49.67,94a4.25,4.25,0,0,0,1.81-.52c1.05-.6,2.11-1.17,3.16-1.76a2.7,2.7,0,0,1,2.86-.2,7.29,7.29,0,0,1,1.76.94A5.74,5.74,0,0,0,63.9,93.9a10.58,10.58,0,0,0,5.51-1.77,4.52,4.52,0,0,1,3.32-.8,15.24,15.24,0,0,0,7.11-.82A2.88,2.88,0,0,0,81,89.77,14.92,14.92,0,0,0,84.16,85a9.9,9.9,0,0,0,1-3c.06-.85.17-1.69.24-2.54a11.65,11.65,0,0,0-1-5.42,41.67,41.67,0,0,1-1.14,5.32,6.57,6.57,0,0,1-1.8,3,14.84,14.84,0,0,0-2.87,3.1.52.52,0,0,1-.75.18c-.32-.2-.19-.5,0-.74a2.89,2.89,0,0,1,.54-.66c.92-.74,1.63-1.68,2.49-2.47A5.23,5.23,0,0,0,82.38,79c.26-1,.47-2.08.72-3.11a4.09,4.09,0,0,0,.12-1.8A25.59,25.59,0,0,1,83,68.17a36.67,36.67,0,0,0-.17-5.64c-.33-2.71-.36-5.45-1.16-8.1a11.92,11.92,0,0,0-.9-2.15A2.49,2.49,0,0,0,79,51c-.93-.22-1.88-.38-2.79-.65a8,8,0,0,0-2.75-.17c-.74,0-.88.25-.84,1a8.73,8.73,0,0,1-.08,2.45c-.46,2-.81,4-1.13,6a22.32,22.32,0,0,0-.22,5.94c.13,1.25.12,2.48.17,3.72a13.26,13.26,0,0,1-.49,3.37,3,3,0,0,1-.18.5.41.41,0,0,1-.51.27c-.25-.06-.32-.25-.27-.49s.06-.28.1-.42a14.43,14.43,0,0,0,.32-5.92,26.4,26.4,0,0,1,.23-7.32c.33-2,.74-4,1.08-6a5.33,5.33,0,0,0-.29-3.25c-.47-1-1-2-1.52-2.92a3.06,3.06,0,0,0-1.77-1.46c-1.65-.49-3.2-1.45-5-1a.56.56,0,0,1-.21,0c-1.16-.52-2.3-.09-3.45.07-.85.11-1.26.88-1.86,1.37-.37.3-.19.79-.16,1.21a58.94,58.94,0,0,1-.2,8.08c-.22,2.76-.49,5.51-.55,8.29a16.28,16.28,0,0,0,1.87,8c.76,1.45,1.11,3.07,1.94,4.49a.42.42,0,0,1,0,.58c-.21.17-.39,0-.56-.12a2,2,0,0,1-.67-.95c-.86-2-1.79-4-2.52-6a2.43,2.43,0,0,0-2.24-1.78,5.51,5.51,0,0,1-2.13-.62,4.39,4.39,0,0,1-.61-.42.31.31,0,0,1-.08-.39.31.31,0,0,1,.38-.12c.26.1.51.24.77.34s.53.16.61-.17c.13-.54.48-.56.89-.45s.79.21.88.67.07.73.52.61.19-.53.18-.83c0-1-.12-2-.12-3,0-3.41.56-6.79.76-10.19a57.6,57.6,0,0,0,0-6.7c-.16-2.66-.61-5.3-.66-8a31.87,31.87,0,0,1,0-4.26c.33-2.93.73-5.84,1.12-8.76.21-1.55.57-3.08.66-4.64.12-1.95.48-3.87.65-5.81a33.4,33.4,0,0,0,.05-5.1A4.46,4.46,0,0,0,58,8.74c-.22-.5-.46-1-1.16-1.08-.26.61.06,1.16,0,1.72a32.84,32.84,0,0,1-1.56,7.27,3.33,3.33,0,0,1-3.83,2.51c-1.06-.07-2.13-.11-3.19-.15a3.14,3.14,0,0,1-2.56-1.31,4,4,0,0,1-.71-2.42c.09-2.53-.38-5-.36-7.55a.46.46,0,0,0-.23-.48,1.27,1.27,0,0,0-.65,1.11,14.9,14.9,0,0,0-.18,3.19c.19,1.94.22,3.89.28,5.84A49.64,49.64,0,0,1,44,22.7c-.11,1.28-.3,2.54-.38,3.82-.17,2.83-.27,5.67-.45,8.51-.17,2.58-.49,5.15-.57,7.74a13.74,13.74,0,0,1-.26,2.85,10.2,10.2,0,0,0,.11,4.53,10.51,10.51,0,0,1,0,3.71A52.07,52.07,0,0,1,41,61.37a8.52,8.52,0,0,0-.27,3.48c.09.74.24,1.48.27,2.22a15.6,15.6,0,0,1-.48,5.48,30.84,30.84,0,0,0-1.2,3.63,2.61,2.61,0,0,1-.2.5c-.09.2-.21.39-.47.34a.42.42,0,0,1-.34-.56,9.31,9.31,0,0,1,.53-2.17c1.31-2.55,1.25-5.26,1-8-.13-1.54-.56-3.1,0-4.65a.75.75,0,0,0,0-.62,2.1,2.1,0,0,1,0-1.46,18.41,18.41,0,0,0,.5-3.69c0-.92,0-1.85,0-2.77,0-.26-.11-.6.37-.67a14.58,14.58,0,0,1,.44,3,12.65,12.65,0,0,0,.43-5.11,14.26,14.26,0,0,1,0-5.71,1,1,0,0,0-.33-.95,3.94,3.94,0,0,0-2.54-1.19,31.7,31.7,0,0,1-4.43-.54,8.43,8.43,0,0,0-4.32-.1A4.13,4.13,0,0,0,27.34,43.54Zm14.17-1.07a1.17,1.17,0,0,0,.29-1,36.13,36.13,0,0,1,.4-5.09,18.87,18.87,0,0,0,.07-2.13.6.6,0,0,0-.61-.7c-.5-.06-1-.2-1.47-.23-2.17-.13-4.32-.31-6.46-.64a7.82,7.82,0,0,1-2-.4,25.14,25.14,0,0,0-3.9-1,5.76,5.76,0,0,0-1.38-.09,2.79,2.79,0,0,0-2,1.13c-.45.43.29.58.33,1a23.78,23.78,0,0,0,.89,3.61,2.54,2.54,0,0,0,.81,1.46c.22.19.5.44.21.68s-.49-.11-.67-.3a1.89,1.89,0,0,1-.28-.45,16.22,16.22,0,0,1-1.2-2.85c-.12-.4-.26-.81-.42-1.2-.08-.23-.13-.54-.41-.58s-.41.24-.53.45a17.76,17.76,0,0,0-1.13,2,30.9,30.9,0,0,1-4.91,8.18,4.31,4.31,0,0,0-.84,4.46,12.21,12.21,0,0,0,1.88,4,3,3,0,0,1,.3.56c.52,1,1.08,1.92,1.53,2.92A14.09,14.09,0,0,1,21.6,60.4a14,14,0,0,0,1.06,2.92c.47-1.43.9-2.62,1.27-3.84a25.23,25.23,0,0,0,.85-3.29A25.13,25.13,0,0,0,25,49.71a12,12,0,0,1,1.18-6.18,3.3,3.3,0,0,1,1.52-1.71,7.3,7.3,0,0,1,4.9-1c1.29.27,2.6.39,3.89.58C38.2,41.63,40,41.41,41.51,42.47ZM46,14.39c0,.36,0,.71,0,1.07a2.65,2.65,0,0,0,2.54,2.73c1,.15,2-.16,3.07.08a2.28,2.28,0,0,0,2-.63,3.16,3.16,0,0,0,1-1.72c.37-1.48.65-3,1-4.46a10.24,10.24,0,0,0-.1-5,2.14,2.14,0,0,0-2.08-1.81c-2-.14-3.88-.68-5.84-.9a1.24,1.24,0,0,0-.9.23,2.41,2.41,0,0,0-1.09,1.87,24,24,0,0,0,0,4.15C45.84,11.44,45.69,12.93,46,14.39Zm11.3,30.47c1.6-1.44,3.48-1.06,5.17-1.41a2.13,2.13,0,0,0-.75-1.54,13.24,13.24,0,0,0-3.82-2.24,1.54,1.54,0,0,0-1-.2A35,35,0,0,0,57.25,44.86Z" transform="translate(-15.06 -3)"/><path d="M27.34,43.54a10.05,10.05,0,0,0,1.86-.44,6.83,6.83,0,0,1,4,0,16.81,16.81,0,0,1,3.69,1.34c.12.07.26.11.38.18s.34.29.23.53-.34.22-.54.12a25.46,25.46,0,0,0-2.63-1.14,7.36,7.36,0,0,0-5.89,0c-.75.34-.76.32-1.24-.4Z" transform="translate(-15.06 -3)"/><path d="M69.41,67.1a31,31,0,0,1-.23,4c0,.49-.26.8-.81.74-.11,0-.24-.08-.31,0a2,2,0,0,1-1.89,0,9.22,9.22,0,0,1-1.33-.33c-.18-.09-.42-.18-.37-.45s.31-.25.52-.25c.46,0,.92,0,1.38.05a3.15,3.15,0,0,0,1.26-.1c.63-.22.84-.3.92-1.09.16-1.67,0-3.32,0-5,0-.41-.31-1.1.33-1.13s.35.66.42,1.06A15.88,15.88,0,0,1,69.41,67.1Z" transform="translate(-15.06 -3)"/><path d="M54,59.39a29.93,29.93,0,0,1-.42,5.33c0,.26,0,.76-.44.67s-.34-.5-.3-.81c.1-.84.3-1.68.35-2.53a71.06,71.06,0,0,0,.08-9.23,7,7,0,0,1,.1-2.33c0-.14.09-.29.27-.27s.23.14.25.29a1.65,1.65,0,0,1,0,.32c.07,1.73.18,3.47.18,5.2A21.32,21.32,0,0,0,54,59.39Z" transform="translate(-15.06 -3)"/><path d="M22.69,81.15a.92.92,0,0,1,.48.22,18.24,18.24,0,0,1,2.59,2,7.55,7.55,0,0,0,4.1,1.87c1.23.17,2.45.41,3.68.62a1.65,1.65,0,0,1,1,.48.37.37,0,0,1,.07.48c-.12.19-.29.14-.46.05A10.36,10.36,0,0,0,30.28,86,9,9,0,0,1,25,83.76a12.74,12.74,0,0,0-2-1.55c-.23-.16-.49-.31-.56-.61S22.4,81.17,22.69,81.15Z" transform="translate(-15.06 -3)"/><path d="M51,91.86c.08.1.11.17.16.19s.46,0,.42.34-.24.25-.41.24c-.75,0-1.48.14-2.22.17s-1.35,0-2,0a4.6,4.6,0,0,1-.52-.06c-.47-.06-.24-.73-.73-.82a1.79,1.79,0,0,1-1-.52c-.15-.17-.27-.36-.12-.57s.37-.16.57,0c1.5.9,3.13.73,4.75.54.7-.09,1.38-.28,2.08-.43l.3-.08c.24,0,.54-.12.64.2s-.21.41-.44.48C51.94,91.65,51.46,91.74,51,91.86Z" transform="translate(-15.06 -3)"/><path d="M65.92,48.41a9.29,9.29,0,0,1-4.05-.62c-.2-.07-.42-.19-.33-.45s.29-.17.46-.14A12.29,12.29,0,0,0,65.42,47a9.62,9.62,0,0,0-4.33-.73l-.42,0c-.22,0-.47,0-.49-.27s.2-.26.37-.31a2.49,2.49,0,0,1,1.05-.12,16.39,16.39,0,0,1,6,1.59c.3.16.79.29.59.72s-.61.25-1,.05a5.43,5.43,0,0,0-3.06-.29C64.86,48,65.5,47.91,65.92,48.41Z" transform="translate(-15.06 -3)"/><path d="M56.72,16.53a22.76,22.76,0,0,1-.57,3c-.27,1.82-.49,3.64-.61,5.48a21.42,21.42,0,0,1-.38,3.58,2.07,2.07,0,0,1-.15.5.28.28,0,0,1-.25.13.36.36,0,0,1-.22-.2,1.18,1.18,0,0,1,0-.42c.35-3.73.62-7.47,1.26-11.17a5.92,5.92,0,0,1,.27-.91.38.38,0,0,1,.4-.29A.3.3,0,0,1,56.72,16.53Z" transform="translate(-15.06 -3)"/><path d="M54.7,38.85a13.48,13.48,0,0,0,.19,2.92,2.28,2.28,0,0,1,0,.64.31.31,0,0,1-.23.32c-.22.05-.33-.1-.39-.27a8.51,8.51,0,0,1-.37-2.83c0-1.74.25-3.46.15-5.2a2.59,2.59,0,0,1,.22-1.35.44.44,0,0,1,.5-.3c.27.06.25.29.24.51C54.91,35.2,54.8,37.11,54.7,38.85Z" transform="translate(-15.06 -3)"/><path d="M72.6,65.64c0,.85,0,1.7,0,2.55a1.24,1.24,0,0,0,1.06,1.37c.62.14,1.22.33,1.83.52.2.06.44.17.37.43s-.35.3-.61.26a.41.41,0,0,1-.19-.08,3,3,0,0,0-1.59-.51c-1-.18-1.44-.59-1.51-1.62a39.13,39.13,0,0,1,.3-5.18c0-.21,0-.59.34-.56s.23.37.22.6-.08.7-.1,1,0,.78,0,1.17Z" transform="translate(-15.06 -3)"/><path d="M46.92,20.79l-.44.13c-.26.08-.51.11-.56-.25s.14-.45.39-.55a.77.77,0,0,1,.52,0c.38.08.77.14,1.15.23a5,5,0,0,0,2,.14,7.72,7.72,0,0,1,1.91.13c.44,0,.89.15,1.18-.42.15-.28.51-.16.61.18.19.57-.2,1.05-.9.93a17.37,17.37,0,0,0-3-.07,5.9,5.9,0,0,1-2.5-.37A3.2,3.2,0,0,0,46.92,20.79Z" transform="translate(-15.06 -3)"/><path d="M81,59.75c-.4-.28-.32-.7-.36-1.07-.11-1.06-.19-2.12-.32-3.17a4.36,4.36,0,0,0-1.12-2.69c-.15-.15-.28-.35-.08-.55s.38-.05.57.06a1.83,1.83,0,0,1,.58.74,7.88,7.88,0,0,1,1,3.34c.06.92,0,1.84,0,2.76A.69.69,0,0,1,81,59.75Z" transform="translate(-15.06 -3)"/><path d="M49.71,46.83a4.44,4.44,0,0,1-1.87-.34,6.1,6.1,0,0,0-4.11-.62.81.81,0,0,1-.31,0c-.18,0-.37-.09-.4-.29s.2-.34.4-.38a6.89,6.89,0,0,1,3.54.34,11.34,11.34,0,0,0,1.82.58,5,5,0,0,0,2.1,0c.24-.08.63-.21.7.18s-.35.4-.61.44S50.13,46.79,49.71,46.83Z" transform="translate(-15.06 -3)"/><path d="M65,91.2c-.81,0-1.62,0-2.42-.11-.65-.06-.94-.35-.94-.81,0-.26.17-.46.39-.32,1.14.72,2.41.34,3.62.45a19.27,19.27,0,0,0,2,0c.23,0,.56-.06.59.27s-.34.41-.6.41c-.88,0-1.77,0-2.65,0Z" transform="translate(-15.06 -3)"/><path d="M72.43,85.93c.15,1.27-.56,2.53-.52,3.89a.45.45,0,0,1-.5.46c-.32,0-.35-.29-.36-.55a7.35,7.35,0,0,1,.4-1.86,8.65,8.65,0,0,0,.25-2.63c0-.25,0-.5,0-.74a.3.3,0,0,1,.25-.31c.22,0,.33.1.39.27A3.7,3.7,0,0,1,72.43,85.93Z" transform="translate(-15.06 -3)"/><path d="M68.6,59.72a4,4,0,0,1-.07-1.66c.07-1.44.2-2.88.16-4.33A4.06,4.06,0,0,1,69,52c.06-.14.18-.26.31-.25s.28.19.29.38a1.15,1.15,0,0,1,0,.32c-.37,2.3-.34,4.64-.76,6.94C68.79,59.49,68.81,59.65,68.6,59.72Z" transform="translate(-15.06 -3)"/><path d="M29,53.06a4.88,4.88,0,0,1-.19-3.34,9.71,9.71,0,0,1,.84-2.61,1.33,1.33,0,0,1,.43-.59.39.39,0,0,1,.4,0,.28.28,0,0,1,.12.36l-.21.49a9.49,9.49,0,0,0-1.15,5.4C29.21,52.86,29.17,53,29,53.06Z" transform="translate(-15.06 -3)"/><path d="M57.53,75.79a3.12,3.12,0,0,1-.05.4c0,.1-.08.2-.22.19a.25.25,0,0,1-.25-.14.86.86,0,0,1-.12-.3,14.62,14.62,0,0,0-1.62-4.12c-.14-.3-.58-.74-.14-1s.51.39.7.65A8.67,8.67,0,0,1,57.53,75.79Z" transform="translate(-15.06 -3)"/><path d="M40.28,45.58c-.09.23-.26.19-.43.13a11.14,11.14,0,0,1-2-1,13.14,13.14,0,0,0-1.78-1.14.32.32,0,0,1-.21-.42.3.3,0,0,1,.44-.16,4.07,4.07,0,0,1,.76.36,2.93,2.93,0,0,0,1.25.55c.95.11,1.29,1,1.9,1.51C40.28,45.42,40.27,45.52,40.28,45.58Z" transform="translate(-15.06 -3)"/><path d="M30.13,61.42c-.22,0-.47,0-.52-.25-.18-.75-.78-.73-1.33-.76a6.19,6.19,0,0,1-1.55-.32c-.24-.07-.51-.19-.43-.5s.35-.32.6-.22c.92.36,2,.24,2.87.69a5.8,5.8,0,0,1,.66.33c.23.16.46.37.32.69S30.38,61.38,30.13,61.42Z" transform="translate(-15.06 -3)"/><path d="M31.14,88.06a3.3,3.3,0,0,1-.59-.13l-3.48-1.28c-.21-.07-.41-.17-.36-.43s.35-.31.6-.28a1.14,1.14,0,0,1,.39.14,28.94,28.94,0,0,0,3.59,1.28c.23.07.57.08.5.41S31.42,88,31.14,88.06Z" transform="translate(-15.06 -3)"/><path d="M37.26,85.21a13.45,13.45,0,0,1-.9,3.29,1.74,1.74,0,0,1-.11.18c-.15.21-.3.44-.59.32s-.24-.4-.15-.63c.16-.47.35-.93.53-1.39a6.84,6.84,0,0,0,.48-1.84c0-.3,0-.74.43-.7S37.15,85,37.26,85.21Z" transform="translate(-15.06 -3)"/><path d="M83.25,84.21a3.17,3.17,0,0,1-.32.52c-.72.74-1.45,1.45-2.18,2.18-.13.13-.3.23-.47.12s-.13-.37,0-.56a1.45,1.45,0,0,1,.3-.43,18.92,18.92,0,0,0,2.21-2,.27.27,0,0,1,.38-.06S83.21,84.12,83.25,84.21Z" transform="translate(-15.06 -3)"/><path d="M54.47,69.5c-1.08-.07-2-.42-2.92-.56a.4.4,0,0,1-.37-.45c0-.25.29-.31.51-.27a19.07,19.07,0,0,1,2.78.67c.19.06.45.13.4.41S54.55,69.49,54.47,69.5Z" transform="translate(-15.06 -3)"/><path d="M27.89,60.9c.1.49-.4.44-.43.73s.34.22.5.35.23.18.15.35a.25.25,0,0,1-.26.13c-.56-.06-1.12-.11-1.68-.2a.45.45,0,0,1-.41-.42.33.33,0,0,1,.18-.36A4.64,4.64,0,0,1,27.89,60.9Z" transform="translate(-15.06 -3)"/><path d="M58.83,87.52,57.93,90a.32.32,0,0,1-.33.21.35.35,0,0,1-.31-.37,1.44,1.44,0,0,1,.08-.51c.26-.69.54-1.37.83-2,.07-.19.18-.43.43-.38S58.83,87.22,58.83,87.52Z" transform="translate(-15.06 -3)"/><path d="M64.65,92.35c-.35,0-.7,0-1.05,0a.71.71,0,0,1-.66-.45c-.11-.26,0-.47.27-.4a13.42,13.42,0,0,0,2.83.18c.21,0,.48,0,.5.28s-.29.34-.52.36c-.45,0-.91.05-1.37.08Z" transform="translate(-15.06 -3)"/><path d="M46.31,47.72l1.3.09c.14,0,.28.08.3.24s-.11.32-.29.36-.35,0-.52.06a9.42,9.42,0,0,0-2,.1.41.41,0,0,1-.53-.23c-.1-.33.18-.46.41-.5C45.43,47.77,45.89,47.75,46.31,47.72Z" transform="translate(-15.06 -3)"/><path d="M27.78,49a6.23,6.23,0,0,1,.54-3.2.43.43,0,0,1,.54-.22.28.28,0,0,1,.15.24c-.31,1.09-.63,2.17-.94,3.25Z" transform="translate(-15.06 -3)"/><path d="M68.9,72.62a.46.46,0,0,1-.41.29,18.12,18.12,0,0,0-2.32.27.92.92,0,0,1-.52-.05c-.21-.11-.3-.45-.06-.48,1.08-.14,2.16-.7,3.26-.12C68.88,72.54,68.88,72.59,68.9,72.62Z" transform="translate(-15.06 -3)"/><path d="M78,90.16c-.22,0-.34-.12-.37-.27a.33.33,0,0,1,.11-.38,9.2,9.2,0,0,1,2.11-1,.29.29,0,0,1,.34.17c0,.08,0,.25,0,.29A11.69,11.69,0,0,1,78,90.16Z" transform="translate(-15.06 -3)"/><path d="M72.32,89.23a7.75,7.75,0,0,1,.09-.87c0-.24.1-.54.41-.53s.39.38.39.63a10.6,10.6,0,0,1-.14,1.37c0,.18-.12.34-.33.33a.39.39,0,0,1-.37-.33A4.28,4.28,0,0,1,72.32,89.23Z" transform="translate(-15.06 -3)"/><path d="M31.54,89.65a3.23,3.23,0,0,1-1.77-.4c-.19-.12-.34-.29-.23-.52s.28-.15.45-.11a6.37,6.37,0,0,0,2,.45.25.25,0,0,1,.25.28c0,.16-.12.24-.27.26S31.59,89.64,31.54,89.65Z" transform="translate(-15.06 -3)"/><path d="M52.4,22.11c.31,0,.63,0,.94.08a.38.38,0,0,1,.32.36.29.29,0,0,1-.33.31c-.52,0-1,0-1.57-.06a.36.36,0,0,1-.36-.42c0-.28.27-.26.48-.26l.52,0Z" transform="translate(-15.06 -3)"/><path d="M75.21,90.58a3.29,3.29,0,0,1-.63-.08.48.48,0,0,1-.37-.57c.06-.33.33-.29.59-.22s.36.06.52.12c.33.14,1,0,.91.46S75.55,90.39,75.21,90.58Z" transform="translate(-15.06 -3)"/><path d="M73.19,72.16A1.52,1.52,0,0,1,72.4,72c-.2-.1-.35-.26-.26-.51s.32-.42.48-.3a2.73,2.73,0,0,0,1.21.27c.19,0,.35.13.33.34a.3.3,0,0,1-.3.26Z" transform="translate(-15.06 -3)"/><path d="M51,48.35a2.81,2.81,0,0,1-1.83-.07c-.18-.05-.33-.16-.28-.38a.26.26,0,0,1,.32-.21A2.6,2.6,0,0,1,51,48.35Z" transform="translate(-15.06 -3)"/><path d="M30.44,35.42a18.73,18.73,0,0,1-.25,3.27c0,.22-.06.47-.34.45s-.29-.28-.26-.5a3.29,3.29,0,0,0-.24-2.16,1.46,1.46,0,0,1,0-.63A5,5,0,0,0,29,33.56c-.13-.28-.21-.63.33-.68s.81-.37,1,.32A16.59,16.59,0,0,1,30.44,35.42Z" transform="translate(-15.06 -3)"/><path d="M22.38,56.62c-.08,0-.21,0-.26-.12a54.74,54.74,0,0,1-3.6-6.14c-.12-.26-.26-.58.12-.72a.5.5,0,0,1,.66.39c.57,1.9,1.85,3.42,2.75,5.14.16.32.33.63.46,1A.37.37,0,0,1,22.38,56.62Z" transform="translate(-15.06 -3)"/><path d="M22.33,41.43a3.55,3.55,0,0,1-.19.54Q21,44.09,19.9,46.2c-.08.15-.17.35-.39.26s-.14-.28-.1-.45a7.32,7.32,0,0,1,.76-2,13.12,13.12,0,0,0,1.41-2.86c.07-.25.17-.5.49-.42S22.35,41.11,22.33,41.43Z" transform="translate(-15.06 -3)"/><path d="M17.67,46.3a.45.45,0,0,1,.41.3A8.33,8.33,0,0,0,19,48.85a.28.28,0,0,1-.07.38.34.34,0,0,1-.48,0,4.17,4.17,0,0,1-1.22-2.42C17.19,46.5,17.4,46.33,17.67,46.3Z" transform="translate(-15.06 -3)"/><path d="M27.78,33.1c0-.08,0-.26,0-.43a.24.24,0,0,1,.19-.22.26.26,0,0,1,.32.2c.15.66.28,1.31.4,2a.26.26,0,0,1-.15.34.29.29,0,0,1-.36-.14A3.3,3.3,0,0,1,27.78,33.1Z" transform="translate(-15.06 -3)"/></svg>
